<svg xmlns="http://www.w3.org/2000/svg" viewBox="0 0 123.37 60" width="123.37" height="60"><defs><filter id="componente-chip-tono-istituzionale-om1" filterUnits="userSpaceOnUse" x="-40" y="-40" width="203.37" height="140" color-interpolation-filters="sRGB"><feGaussianBlur in="SourceAlpha" stdDeviation="3"/><feOffset dx="0" dy="1" result="o"/><feFlood flood-color="#0F172A" flood-opacity="0.05"/><feComposite in2="o" operator="in"/><feMerge><feMergeNode/><feMergeNode in="SourceGraphic"/></feMerge></filter></defs><g id="componente-chip-tono-istituzionale"><g id="chip-tono-istituzionale"><rect x="18" y="18" width="87.37" height="24" rx="12" fill="#FFFFFF" id="chip-tono-istituzionale-fondo" stroke="#EDF1F7" stroke-width="1" filter="url(#componente-chip-tono-istituzionale-om1)"/><path d="M34 26.1V33.8H32.8V26.1ZM37.6 33.9Q37 33.9 36.5 33.7Q36 33.5 35.7 33.2Q35.4 32.8 35.3 32.3L36.3 32.1Q36.4 32.6 36.8 32.8Q37.1 33 37.6 33Q38.1 33 38.5 32.8Q38.8 32.5 38.8 32.2Q38.8 31.9 38.6 31.8Q38.4 31.6 38 31.5L37 31.3Q36.2 31.1 35.8 30.7Q35.4 30.3 35.4 29.7Q35.4 29.2 35.7 28.8Q36 28.4 36.5 28.2Q37 28 37.6 28Q38.3 28 38.7 28.2Q39.1 28.3 39.4 28.7Q39.7 29 39.8 29.4L38.8 29.6Q38.7 29.3 38.4 29.1Q38.2 28.9 37.7 28.9Q37.2 28.9 36.9 29.1Q36.6 29.3 36.6 29.6Q36.6 29.9 36.8 30.1Q37 30.3 37.5 30.4L38.4 30.6Q39.2 30.7 39.6 31.1Q39.9 31.5 39.9 32.1Q39.9 32.6 39.6 33Q39.3 33.4 38.8 33.7Q38.3 33.9 37.6 33.9ZM43.5 28V29H40.4V28ZM41.3 26.7H42.4V32.2Q42.4 32.6 42.5 32.7Q42.7 32.9 43 32.9Q43.1 32.9 43.2 32.9Q43.4 32.9 43.5 32.8L43.7 33.7Q43.5 33.8 43.3 33.8Q43.1 33.9 42.9 33.9Q42.1 33.9 41.7 33.5Q41.3 33.1 41.3 32.3ZM44.5 33.8V28H45.7V33.8ZM45.1 27.2Q44.8 27.2 44.6 27Q44.4 26.8 44.4 26.5Q44.4 26.2 44.6 26Q44.8 25.8 45.1 25.8Q45.4 25.8 45.6 26Q45.8 26.2 45.8 26.5Q45.8 26.8 45.6 27Q45.4 27.2 45.1 27.2ZM49.5 28V29H46.4V28ZM47.3 26.7H48.4V32.2Q48.4 32.6 48.5 32.7Q48.7 32.9 49 32.9Q49.1 32.9 49.3 32.9Q49.4 32.9 49.5 32.8L49.7 33.7Q49.5 33.8 49.3 33.8Q49.1 33.9 48.9 33.9Q48.1 33.9 47.7 33.5Q47.3 33.1 47.3 32.3ZM52.5 33.9Q51.9 33.9 51.5 33.6Q51.1 33.4 50.8 32.9Q50.6 32.4 50.6 31.7V28H51.7V31.5Q51.7 32.2 52 32.5Q52.3 32.9 52.9 32.9Q53.3 32.9 53.6 32.7Q53.9 32.5 54.1 32.2Q54.2 31.9 54.2 31.4V28H55.4V33.8H54.3L54.3 32.4H54.4Q54.1 33.2 53.7 33.5Q53.2 33.9 52.5 33.9ZM56.7 33.8V33L59.7 29.1V29H56.8V28H61.2V28.9L58.2 32.7V32.8H61.3V33.8ZM62.6 33.8V28H63.7V33.8ZM63.1 27.2Q62.8 27.2 62.6 27Q62.4 26.8 62.4 26.5Q62.4 26.2 62.6 26Q62.8 25.8 63.1 25.8Q63.4 25.8 63.6 26Q63.8 26.2 63.8 26.5Q63.8 26.8 63.6 27Q63.4 27.2 63.1 27.2ZM67.5 33.9Q66.7 33.9 66.1 33.5Q65.5 33.2 65.2 32.5Q64.8 31.8 64.8 30.9Q64.8 30.1 65.2 29.4Q65.5 28.7 66.1 28.3Q66.7 28 67.5 28Q68.3 28 68.9 28.3Q69.5 28.7 69.9 29.4Q70.2 30.1 70.2 30.9Q70.2 31.8 69.9 32.5Q69.5 33.2 68.9 33.5Q68.3 33.9 67.5 33.9ZM67.5 32.9Q68 32.9 68.4 32.7Q68.7 32.4 68.9 31.9Q69 31.5 69 30.9Q69 30.4 68.9 29.9Q68.7 29.5 68.4 29.2Q68 28.9 67.5 28.9Q67 28.9 66.7 29.2Q66.3 29.5 66.1 29.9Q66 30.4 66 30.9Q66 31.5 66.1 31.9Q66.3 32.4 66.7 32.7Q67 32.9 67.5 32.9ZM72.5 30.4V33.8H71.3V28H72.4L72.4 29.5H72.3Q72.6 28.7 73 28.3Q73.5 28 74.2 28Q74.8 28 75.2 28.2Q75.6 28.5 75.9 28.9Q76.1 29.4 76.1 30.1V33.8H75V30.3Q75 29.7 74.7 29.3Q74.4 29 73.8 29Q73.4 29 73.1 29.1Q72.8 29.3 72.6 29.6Q72.5 29.9 72.5 30.4ZM79.2 33.9Q78.6 33.9 78.2 33.7Q77.7 33.5 77.5 33.1Q77.2 32.7 77.2 32.2Q77.2 31.7 77.4 31.4Q77.6 31 77.9 30.9Q78.2 30.7 78.6 30.6Q79 30.5 79.4 30.4Q79.9 30.4 80.3 30.3Q80.6 30.3 80.7 30.2Q80.9 30.1 80.9 29.9V29.9Q80.9 29.6 80.8 29.4Q80.6 29.1 80.4 29Q80.1 28.9 79.8 28.9Q79.4 28.9 79.1 29Q78.9 29.1 78.7 29.3Q78.5 29.5 78.4 29.7L77.4 29.4Q77.6 28.9 77.9 28.6Q78.3 28.3 78.8 28.1Q79.3 28 79.8 28Q80.1 28 80.5 28.1Q80.9 28.1 81.2 28.4Q81.6 28.6 81.8 29Q82 29.4 82 30V33.8H80.9V33H80.9Q80.7 33.2 80.5 33.4Q80.3 33.6 80 33.8Q79.6 33.9 79.2 33.9ZM79.4 33Q79.9 33 80.2 32.8Q80.5 32.6 80.7 32.3Q80.9 32 80.9 31.7V31Q80.8 31 80.6 31.1Q80.5 31.1 80.3 31.2Q80 31.2 79.8 31.2Q79.6 31.3 79.5 31.3Q79.2 31.3 78.9 31.4Q78.6 31.5 78.5 31.7Q78.3 31.9 78.3 32.2Q78.3 32.4 78.5 32.6Q78.6 32.8 78.9 32.9Q79.1 33 79.4 33ZM84.5 26.1V33.8H83.4V26.1ZM88.4 33.9Q87.6 33.9 87 33.5Q86.4 33.2 86 32.5Q85.7 31.8 85.7 31Q85.7 30.1 86 29.4Q86.4 28.7 86.9 28.4Q87.5 28 88.3 28Q88.8 28 89.3 28.1Q89.7 28.3 90.1 28.6Q90.5 29 90.7 29.5Q90.9 30.1 90.9 30.9V31.3H86.3V30.4H90.3L89.8 30.7Q89.8 30.2 89.6 29.8Q89.5 29.4 89.1 29.1Q88.8 28.9 88.3 28.9Q87.9 28.9 87.5 29.1Q87.2 29.4 87 29.7Q86.8 30.1 86.8 30.6V31.1Q86.8 31.7 87 32.1Q87.2 32.5 87.6 32.8Q88 33 88.4 33Q88.8 33 89 32.9Q89.3 32.8 89.5 32.6Q89.7 32.4 89.7 32.2L90.8 32.4Q90.7 32.8 90.3 33.2Q90 33.5 89.5 33.7Q89.1 33.9 88.4 33.9Z" fill="#27345A" id="chip-tono-istituzionale-testo"/></g></g></svg>