<svg xmlns="http://www.w3.org/2000/svg" viewBox="0 0 166 116" width="166" height="116">
<title>Accesso bloccato dal secondo anno</title>
<defs><filter id="sfuma-ombra" filterUnits="userSpaceOnUse" x="0" y="0" width="166" height="116"><feGaussianBlur stdDeviation="2"/></filter><filter id="sfuma-alone" filterUnits="userSpaceOnUse" x="0" y="0" width="166" height="116"><feGaussianBlur stdDeviation="5"/></filter><filter id="sfuma-lieve" filterUnits="userSpaceOnUse" x="0" y="0" width="166" height="116"><feGaussianBlur stdDeviation="0.8"/></filter><linearGradient id="nuvola-fondo" gradientUnits="userSpaceOnUse" x1="0" y1="0" x2="0" y2="116"><stop offset="0" stop-color="#EAF1FE"/><stop offset="0.55" stop-color="#EAF1FE"/><stop offset="1" stop-color="#F4F7FE"/></linearGradient><linearGradient id="finestra-luce" gradientUnits="userSpaceOnUse" x1="0" y1="-45" x2="0" y2="45"><stop offset="0" stop-color="#FBFCFF"/><stop offset="1" stop-color="#EAF1FE"/></linearGradient><linearGradient id="barra-luce" gradientUnits="userSpaceOnUse" x1="0" y1="-45" x2="0" y2="-21"><stop offset="0" stop-color="#1F63E6"/><stop offset="1" stop-color="#1050CC"/></linearGradient><linearGradient id="cappello-sopra-luce" gradientUnits="userSpaceOnUse" x1="-0.2" y1="-12.4" x2="1" y2="14"><stop offset="0" stop-color="#2F6FF0"/><stop offset="1" stop-color="#1A55D8"/></linearGradient><linearGradient id="cappello-calotta-luce" gradientUnits="userSpaceOnUse" x1="1" y1="8" x2="1" y2="32"><stop offset="0" stop-color="#1A55D8"/><stop offset="1" stop-color="#0E3FA8"/></linearGradient><linearGradient id="orologio-anello-luce" gradientUnits="userSpaceOnUse" x1="123" y1="75" x2="161" y2="113"><stop offset="0" stop-color="#FF6A5E"/><stop offset="1" stop-color="#EF3B33"/></linearGradient><radialGradient id="orologio-quadrante-luce" gradientUnits="userSpaceOnUse" cx="136.3" cy="86.4" r="24.7"><stop offset="0" stop-color="#FFFFFF"/><stop offset="1" stop-color="#E9EFFD"/></radialGradient></defs>
<g id="nuvola" fill="url(#nuvola-fondo)"><path d="M4 56 C2 20 28 6 76 6 C124 6 160 20 158 60 C156 104 126 112 76 112 C28 112 6 100 4 56 Z"/></g>
<ellipse id="ombra" cx="66" cy="113" rx="54" ry="2.5" fill="#1D4ED8" opacity="0.1" filter="url(#sfuma-ombra)"/>
<g id="finestra" transform="translate(60 60) rotate(-4.5)"><path id="finestra-alone" d="M-44 -45 L44 -45 C50.63 -45 56 -39.63 56 -33 L56 33 C56 39.63 50.63 45 44 45 L-44 45 C-50.63 45 -56 39.63 -56 33 L-56 -33 C-56 -39.63 -50.63 -45 -44 -45 Z" fill="none" stroke="#FFFFFF" stroke-width="3" opacity="0.9"/><path id="finestra-spessore" d="M-44 -45 L44 -45 C50.63 -45 56 -39.63 56 -33 L56 33 C56 39.63 50.63 45 44 45 L-44 45 C-50.63 45 -56 39.63 -56 33 L-56 -33 C-56 -39.63 -50.63 -45 -44 -45 Z" transform="translate(1.4 2.6)" fill="#CBD9F8"/><path id="finestra-faccia" d="M-44 -45 L44 -45 C50.63 -45 56 -39.63 56 -33 L56 33 C56 39.63 50.63 45 44 45 L-44 45 C-50.63 45 -56 39.63 -56 33 L-56 -33 C-56 -39.63 -50.63 -45 -44 -45 Z" fill="url(#finestra-luce)"/><path id="finestra-barra" d="M-44 -45 L44 -45 C50.63 -45 56 -39.63 56 -33 L56 -21 L-56 -21 L-56 -33 C-56 -39.63 -50.63 -45 -44 -45 Z" fill="url(#barra-luce)"/><path id="finestra-barra-filo" d="M-44 -43.8 H44" stroke="#FFFFFF" stroke-opacity="0.4" stroke-width="1.1" stroke-linecap="round"/><circle id="finestra-punto-1" cx="-41" cy="-33" r="3.4" fill="#FFC857"/><circle id="finestra-punto-2" cx="-30.5" cy="-33" r="3.4" fill="#FFC857"/><circle id="finestra-punto-3" cx="-20" cy="-33" r="3.4" fill="#FFFFFF"/></g>
<g id="studente" transform="translate(60 60) rotate(-4.5)">
<g id="cappello"><path id="cappello-calotta" d="M-17.6 8 L-17.6 26 Q1 35.6 19.6 26 L19.6 8 Z" fill="url(#cappello-calotta-luce)"/><path id="cappello-spessore" d="M-26.83 6.21 L0.7 13.92 C0.9 13.97 1.1 13.97 1.29 13.9 L28.87 4.52 C29.91 4.17 31 4.95 31 6.05 L31 6.87 C31 7.72 30.45 8.49 29.64 8.76 L1.29 18.4 C1.1 18.47 0.9 18.47 0.7 18.42 L-27.54 10.51 C-28.4 10.27 -29 9.48 -29 8.58 L-29 7.85 C-29 6.72 -27.92 5.9 -26.83 6.21 Z" fill="#0E3FA8"/><path id="cappello-sopra" d="M-24.2 2.6 L-1.65 -11.49 C-0.75 -12.05 0.38 -12.1 1.32 -11.61 L25.8 1.1 C27.75 2.11 27.54 4.98 25.45 5.69 L1.88 13.7 C1.31 13.9 0.69 13.91 0.11 13.75 L-23.55 7.13 C-25.64 6.54 -26.04 3.75 -24.2 2.6 Z" fill="url(#cappello-sopra-luce)"/><path id="cappello-filo" d="M-27 5.2 L-0.2 -11.4 L29 3.6" stroke="#FFFFFF" stroke-opacity="0.4" stroke-width="1.1" stroke-linecap="round" stroke-linejoin="round" fill="none"/><circle id="cappello-bottone" cx="1" cy="0.8" r="1.5" fill="#0E3FA8"/><path id="cappello-cordino" d="M1 0.8 L26.8 6.5" stroke="#0E3FA8" stroke-width="0.84" stroke-linecap="round" fill="none"/><path id="cappello-cordino-giu" d="M26.8 6.5 V16.7" stroke="#9A4A2C" stroke-width="1.8" stroke-linecap="round" fill="none"/><path id="cappello-nappa" d="M26.8 15.5 L26.8 15.5 C27.79 15.5 28.6 16.31 28.6 17.3 L28.6 19.7 C28.6 20.69 27.79 21.5 26.8 21.5 L26.8 21.5 C25.81 21.5 25 20.69 25 19.7 L25 17.3 C25 16.31 25.81 15.5 26.8 15.5 Z" fill="#FFB300"/></g>
</g>
<g id="orologio"><circle id="orologio-alone" cx="142" cy="94" r="21.6" fill="#FFFFFF" opacity="0.9"/><circle id="orologio-quadrante" cx="142" cy="94" r="19" fill="url(#orologio-quadrante-luce)"/><circle id="orologio-anello" cx="142" cy="94" r="16.91" stroke="url(#orologio-anello-luce)" stroke-width="4.18" fill="none"/><path id="orologio-tacca-1" d="M142 80.98 L142 83.26" stroke="#1D4ED8" stroke-opacity="0.55" stroke-width="1.33" stroke-linecap="round"/><path id="orologio-tacca-2" d="M155.02 94 L152.74 94" stroke="#1D4ED8" stroke-opacity="0.55" stroke-width="1.33" stroke-linecap="round"/><path id="orologio-tacca-3" d="M142 107.02 L142 104.74" stroke="#1D4ED8" stroke-opacity="0.55" stroke-width="1.33" stroke-linecap="round"/><path id="orologio-tacca-4" d="M128.98 94 L131.26 94" stroke="#1D4ED8" stroke-opacity="0.55" stroke-width="1.33" stroke-linecap="round"/><path id="orologio-lancetta-minuti" d="M142 94 L142 82.22" stroke="#1D4ED8" stroke-width="1.9" stroke-linecap="round"/><path id="orologio-lancetta-ore" d="M142 94 L148.91 97.99" stroke="#1D4ED8" stroke-width="2.28" stroke-linecap="round"/><circle id="orologio-perno" cx="142" cy="94" r="1.9" fill="#1D4ED8"/></g>
</svg>
