<svg xmlns="http://www.w3.org/2000/svg" viewBox="0 0 480 480"><defs><clipPath id="c"><circle cx="240" cy="240" r="232"/></clipPath></defs><g clip-path="url(#c)"><path fill="#4338FD" d="M252.7 118h5.3v2l2.3.7c3 1.4 4 2.4 5.7 5.3 2 6.5 1 13 0 19.5q-1.3 10.1-1.4 20.4A100 100 0 0 1 260 194c-1.4 5-1.7 10 0 15 5.5 1.1 11 1.2 16.6 1.4a455 455 0 0 1 25.7 1.6c6.6.6 13.2 2.1 17.7 7.3 2.2 6 2.3 13.4 0 19.3q-2.6 4-6 7.4l-1 2.3c-1.1 3-2.5 4.4-5 6.5a41 41 0 0 0-8 11.2l-3 3-2 3.5a26 26 0 0 1-5 6.5l-1.6 3a43 43 0 0 1-7 9 36 36 0 0 0-7.3 11c-2 3.5-4.5 6.4-7.1 9.5l-5.2 6.7-1.4 1.8-3.2 4.8q-4.3 6-9.2 11.4a48 48 0 0 0-5.7 7.7L241 346h-2l-.7 2.2c-1.4 3-3 4.5-5.3 6.8l-1.4 2.5a21 21 0 0 1-8.6 7.5c-5.2.7-8.5-1-13-3.4a15 15 0 0 1-5.4-10.7c0-14.3 4.2-27.6 8.3-41 3.9-13 8.6-28.9 3-41.9l-3.2-.2-12.5-.6-5.4-.2c-33.1-1.5-33.1-1.5-40.8-7-1-3.3-1-3.3-1-6h-2c-1.1-9.3-1.1-9.3 1.5-13.4l3.8-3.9c2-2 2.7-4 3.7-6.7l3.6-4.3 4.2-5.3 1.4-1.8 2.9-3.7 1.4-1.8 1.2-1.6c1.3-1.5 1.3-1.5 2.9-3 1.9-2 3-4.2 4.4-6.5q6.5-9.7 14-18.6 3.2-4 6-8.4c2.2-3.4 4.2-6.3 7-9 4.2-4.4 6.7-8.4 9-14l4-5 1.5-3c1.5-3 3-4.8 5.5-7 3.6-3.3 6.2-7.4 9-11.3 4.4-6 7.2-7.9 14.7-7.8"/><path fill="#7D7BFD" d="M252.7 118h5.3v2l2.3.7c3 1.4 4 2.4 5.7 5.3 2 6.5 1 13 0 19.5q-1.3 10.1-1.4 20.4A100 100 0 0 1 260 194c-1.4 5-1.7 10 0 15 5.5 1.1 11 1.2 16.6 1.4a455 455 0 0 1 25.7 1.6c6.6.6 13.2 2.1 17.7 7.3 2.2 6 2.3 13.4 0 19.3q-2.6 4-6 7.4l-1 2.3c-1.1 3-2.5 4.4-5 6.5a41 41 0 0 0-8 11.2l-3 3-2 3.5a26 26 0 0 1-5 6.5l-1.6 3a43 43 0 0 1-7 9 36 36 0 0 0-7.3 11c-2 3.5-4.5 6.4-7.1 9.5l-5.2 6.7-1.4 1.8-3.2 4.8q-4.3 6-9.2 11.4a48 48 0 0 0-5.7 7.7L241 346h-2l-.7 2.2c-1.4 3-3 4.5-5.3 6.8l-1.4 2.5a21 21 0 0 1-8.6 7.5c-5.2.7-8.5-1-13-3.4a15 15 0 0 1-5.4-10.7c0-14.3 4.2-27.6 8.3-41 3.9-13 8.6-28.9 3-41.9l-3.2-.2-12.5-.6-5.4-.2c-33.1-1.5-33.1-1.5-40.8-7-1-3.3-1-3.3-1-6h-2c-1.1-9.3-1.1-9.3 1.5-13.4l3.8-3.9c2-2 2.7-4 3.7-6.7l3.6-4.3 4.2-5.3 1.4-1.8 2.9-3.7 1.4-1.8 1.2-1.6c1.3-1.5 1.3-1.5 2.9-3 1.9-2 3-4.2 4.4-6.5q6.5-9.7 14-18.6 3.2-4 6-8.4c2.2-3.4 4.2-6.3 7-9 4.2-4.4 6.7-8.4 9-14l4-5 1.5-3c1.5-3 3-4.8 5.5-7 3.6-3.3 6.2-7.4 9-11.3 4.4-6 7.2-7.9 14.7-7.8m-14.4 11.6q-5.4 6.8-11.4 13a25 25 0 0 0-4 7.4l-3.1 4.3q-3.5 4.2-6.7 8.6-4.5 6-9.4 11.6a26 26 0 0 0-3.7 8.5h-2q-3.3 3.6-5.7 8a85 85 0 0 1-14.3 19l-1 1.8c-1 2.2-1 2.2-3.3 4.4a42 42 0 0 0-6.4 8.8c-1.3 2-1.3 2-3.8 4.8a35 35 0 0 0-5.6 11c-1 2.2-1 2.2-3 4.2-.6 5.4.6 8.6 3.3 13.2 5.2 5.2 12 5.3 18.8 5.5l2.9.1 8.9.3 9 .3 5.6.2 2.5.1 2.3.1c1.8.2 1.8.2 3.8 1.2h8c4.8 9 1.3 20-.5 29.4l-1.5 8.4-.5 3-1 6c-2.6 15.6-2.6 15.6-6.2 22.4-2.2 6.4-3 14.7-.3 21.1 2.2 2.6 4 3.5 7.5 4.1 4 .3 6.8 0 10.4-2a40 40 0 0 0 5-7.4l2.6-2.9c1.9-2.2 2.7-3.6 3.8-6.4 1.7-4.5 5-7.6 8.3-11q4.4-5.3 8.4-11 4.1-5.5 8.5-10.7c1.5-2 1.5-2 1.5-4l3-1c1.6-2.2 1.6-2.2 3.2-5a91 91 0 0 1 11.8-15c2.9-3.3 4.8-6.5 6.8-10.3 2.5-4.7 5.3-8.4 8.9-12.2 1.3-1.5 1.3-1.5 1.3-3.5h2l2.7-4q2.3-3.6 4.8-7 .7-1.4 1.8-2.7 2-2.9 4.6-5.3c2.6-3.8 2.8-6.2 2.6-10.6-.8-4-2.4-5.7-5.5-8.4-2.3-.9-2.3-.9-4-1v-2h-49v-2l-2.5-1.2c-2.5-1.8-2.5-1.8-3-4.9V203l.5-7q0-1.4.2-2.7c.6-10.4 2-20.2 4.8-30.3q1.8-7.4 2.8-15l.3-2.7c2-14 2-14-.1-18.8-4.6-5.5-4.6-5.5-8.4-5.9h-3l-2.8-.2c-5.4 1-8.3 5-11.5 9.1"/><path fill="#2E23FA" d="m253.5 124.7 2.4-.1 2.1.4c2 3 2 3 1.7 5.5L258 136a42 42 0 0 0-1.9 13.2c-.1 4-1 6.3-3.1 9.8h-1l.4-9.5.2-2.7q.3-7.9 1.4-15.8c-3.5 1-4.9 1.9-7.2 4.7-1.8 3.3-1.8 3.3-2.7 6.9-1.4 4.3-3.6 5.6-7.1 8.4l-2 6c-2 2.4-2 2.4-4 4h-2l-.2 2.7c-1 4.2-2.7 5.4-5.8 8.3l-6 8-1.6 2c-1.4 2-1.4 2-2.3 4.5-1.1 2.5-1.1 2.5-3 4.3a19 19 0 0 0-4.1 6.3c-1.5 3.2-2.7 5.2-6 6.9h-3l-.1 3c-1.1 4.8-2.5 5.6-6.1 8.4-2.5 2.3-3.5 4.8-4.8 7.9-1.4 2.5-3.5 3.3-6 4.7l-2 3c-2 3-2 3-4.6 4.5-3.1 2-4 4-5.4 7.5l-4-1c-.3-2.7-.3-2.7 0-6l4-4 3-7 4-5 .9-2.4c1.1-2.6 2.1-3.7 4.1-5.6 2.7-2.5 3.7-4.5 5-8 2.3-3.7 4.3-6.5 8-9l3-5 4-5 1.3-2.4c1.7-2.5 3-3.7 5.3-5.5 3.5-2.8 3.8-4.6 4.4-9.1l5-5 1.5-3.1c1.7-3.3 3.5-4.6 6.5-7l2.6-3.1c2.4-2.8 2.4-2.8 5.4-3.8l1.3-2.5c3.2-6.5 8.6-11.5 13.7-16.5 2.4-2.4 3.2-2.3 6.5-2.3"/><path fill="#3931FB" d="M258 121c3.2 2.4 4.8 4.7 7 8 .5 7.4-.6 14.5-1.8 21.9l-.5 3.3Q261 164.8 258 175h-2l-1.4 10.9-.4 3.1-.4 3.1-.4 3-.9 8.1-.5 3.8-2 1c-.7-15.9 1.9-31.4 5.2-47 5.9-28.7 5.9-28.7 2.8-35q-4.5-.7-9 0a35 35 0 0 0-5 6q-3.5 3.6-7.1 6.9c-1.9 2.1-1.9 2.1-3.3 5.2-1.9 3.4-3.3 4-6.6 5.9l-2.6 3.1C222 156 222 156 219 158q-1.6 3-2.8 6.1c-1.4 2.3-2.8 2.9-5.2 3.9l.3 2.8c-.3 3.2-.3 3.2-2.2 5.3l-2.4 1.9a23 23 0 0 0-7.7 10l-4 4-1.6 2.8-1.4 2.2h-2l-.8 2.3c-1.3 2.9-2.5 4-5.2 5.7a62 62 0 0 1 5.4-8.9q3.5-4.9 6.6-10.1l2-3h2l.8-2.7c1.2-3.4 2.6-5.4 5-8.2q3.7-4.5 7.2-9.1 4.4-6 9.3-11.6c1.7-2.4 1.7-2.4 2.6-4.8 1.5-3.5 3.8-5.8 6.4-8.5q4.8-4.7 8.6-10.1c4.9-7 9.7-8.5 18.1-7"/><path fill="#D3D2FD" d="M289 211c20.8-.8 20.8-.8 29 4a22 22 0 0 1 4 5l5 4c1.3 2.6 1.2 4.5 1.2 7.4v3c-.2 2.6-.2 2.6-2.2 5.6h-2l-.5 2.5c-1.8 4.2-4.1 6.3-7.3 9.4A66 66 0 0 0 303 269l-2.1 3.1c-1.9 2.9-1.9 2.9-3.1 5.7a45 45 0 0 1-7.7 9.6A59 59 0 0 0 280 301l-4.6 5.9-2.4 2.9-2 2.2h-2l-.1 2.1c-1.3 4.2-3.9 6.3-7.1 9.3l-3.5 3.4-1.8 1.7q-4 4-7.5 8.5c0-3.7.8-4.2 3.3-6.9q3.9-4.2 6.7-9.1l6.1-8.2 1.6-2.2c4-5.3 4-5.3 6.3-7.6l1.1-3c1.9-4.6 5.2-7.8 8.6-11.4q4-4.6 7-9.6 2.5-3.6 5.3-7l1.5-2.5q2.5-3.9 5.5-7.5l1.3-2.4c1.6-2.4 3.2-4.1 5.3-6.1a19 19 0 0 0 5.4-8.5l4-5c2.3-3.6 2.3-6.7 2.3-10.9l.1-3.7c-.4-3.8-.9-5.5-3.4-8.4a47 47 0 0 0-21.3-4.4l-6.7-.6z"/><path fill="#3328FB" d="m253.5 124.7 2.4-.1 2.1.4c2 3 2 3 1.7 5.5L258 136a42 42 0 0 0-1.9 13.2c-.1 4-1 6.3-3.1 9.8h-1l.4-9.5.2-2.7q.3-7.9 1.4-15.8c-3.5 1-4.9 1.9-7.2 4.7-1.8 3.3-1.8 3.3-2.7 6.9-1.4 4.3-3.6 5.6-7.1 8.4l-2 6c-2 2.4-2 2.4-4 4h-2l-.2 2.7c-1 4.2-2.7 5.4-5.8 8.3l-6 8-1.6 2c-1.4 2-1.4 2-2.3 4.5-1.1 2.5-1.1 2.5-3 4.3a19 19 0 0 0-4.1 6.3c-1.5 3.2-2.7 5.3-6 6.9l-3-1 2.4-2.1c2.9-3.2 3.6-5.6 4.6-10 1-2 1-2 4-3 .5-2 .5-2 .8-4.3.5-2.5.5-2.5 1.2-4.6 2.9-1.1 2.9-1.1 6-2q1.6-3.4 3-7l2.7-2.5c2.3-2.5 2.3-2.5 2.6-5.8l-.3-2.7c-1.9.6-1.9.6-4 2l-2 6c-2.4 2.4-3.8 2.5-7 3v-2l2.3-2.2c2.7-2.8 2.7-2.8 4.2-6 1.7-3.2 3.5-4.5 6.5-6.8l2.6-3.2c2.4-2.8 2.4-2.8 5.4-3.8l1.3-2.5c3.2-6.5 8.6-11.5 13.7-16.5 2.4-2.4 3.2-2.3 6.5-2.3M231 149l-5 5 1 2 5-3z"/><path fill="#B2AEFC" d="M252.7 118h5.3v2l2.3.7c3 1.4 4 2.4 5.7 5.3 2 6.5 1 13 0 19.5q-1.3 10.1-1.4 20.4A100 100 0 0 1 260 194c-1.4 5-1.7 10 0 15 5.5 1.1 11 1.2 16.6 1.4a455 455 0 0 1 25.7 1.6q8.4.6 15.7 5c2 2.6 2 2.6 3 5l-1 2-4.4-3.7c-4.4-3.6-7.8-3.6-13.2-3.7h-10.8c-27.3-.5-27.3-.5-32.6-2.6-4.3-5.9-3.5-11.4-2.6-18.2q.9-6 2.6-11.8l1-7.7.3-2.2q1-9 1.3-18 .3-6.4 1.5-12.6c2.2-12.2 2.2-12.2-1-18-2.3-2.8-3-3.5-6.6-3.7h-3l-3-.2c-3 .4-3.5 1.1-5.5 3.4h-2l-.7 1.7a38 38 0 0 1-5.6 7.1l-2.4 2.7-2.3 2.5c-4.7 5.2-4.7 5.2-6 8.3-1.1 3-2.6 5-4.6 7.5l-2 2.4-1.4 1.8c-.7-1.8-.7-1.8-1-4 1-2 1-2 2.8-3.9 2-2.5 3.4-4.5 4.8-7.4 1.5-2.9 3-4.6 5.4-6.7 3.6-3.3 6.2-7.4 9-11.3 4.4-6 7.2-7.9 14.7-7.8"/><path fill="#746EFD" d="M261 159h1q.2 8.3-.9 16.6l-.2 2.1q-1 6.8-2.9 13.3c-2.7 16.5-2.7 16.5 1 22 10.3 4 24.1 2.3 35 2.2 18.2-.1 18.2-.1 23.7 5.3l1.3 1.5 2 2c1 7.1.5 12.7-3.7 18.5L314 246l-.9 2.4a17 17 0 0 1-5 6.5A40 40 0 0 0 300 266l-3 3-2 3.5a26 26 0 0 1-5 6.5l-1.6 3.1c-1.9 3.4-4.2 6-6.9 8.8a38 38 0 0 0-7.4 11A68 68 0 0 1 260 319l-2.2 2.3C256 323 256 323 254 323l-.7 1.6a73 73 0 0 1-5.1 7.7c-1.2 1.7-1.2 1.7-2.7 4.3a59 59 0 0 1-6.5 8.4c-.8-1.6-.8-1.6-1-4a73 73 0 0 1 8-9.6l1.6-1.7q4-4.9 7.4-9.9l6.8-9.3 2.2-3c2-2.5 2-2.5 3.6-4.1q2.4-2.6 4.4-5.8 4.4-6.3 9.6-12a72 72 0 0 0 10-15.1 43 43 0 0 1 7-8.9c1.4-1.6 1.4-1.6 2.4-3.6h2l.8-2.2c1.3-3.1 3-5.2 5.2-7.8l1.9-2.9c2.1-3.1 2.1-3.1 4.9-5.9 2.7-3.9 2.9-6.2 2.6-10.9-.6-3.3-1.9-5-4.4-7.3-2.2-1.3-2.2-1.3-4-2v-2h-49v-2l-1.9-.4c-2.1-.6-2.1-.6-4.1-2.6a146 146 0 0 1 6-53"/><path fill="#FAF9FD" d="M253.4 108h6.6l2 5c-2.4 2.4-8.5 1.4-11.8 1.6-3.2.4-3.2.4-5.2 2.4h-5l-.8 2.2-1.2 2.8-.8 2.1c-1.2 2-1.2 2-3.1 2.7-2.6 1.4-3.5 3-5.1 5.5a91 91 0 0 1-7 9.7l-2 3.1c-2 3-2 3-4 4.3-2 1.6-2 1.6-3.5 5.2-1.5 3.4-1.5 3.4-3.6 4.4h-2c-1-1-1-1-1.1-3.9.2-3 .2-3 1.5-5 1.7-1 1.7-1 4.7-2q0-1.2.3-2.3l.5-2.7.4-2.8c.8-2.3.8-2.3 2.7-3.4l2-.9c1.5-1.9 1.5-1.9 2.7-4a13 13 0 0 1 5.4-6v-3c2-4.7 5-6.4 9.2-8.8 1.8-1.2 1.8-1.2 3.4-3.5 1.4-1.7 1.4-1.7 4-2.3q5.5-.6 10.8-.5"/><path fill="#3A33FD" d="M168 230v3l-1.4 1.3c-2.2 2.4-2.3 4.6-2.6 7.7h4l1.1-2.8c2.4-4.1 4.6-5.1 8.9-7.2-.8 1.9-.8 1.9-2 4-2.1.8-2.1.8-4 1l.2 3.2c-.2 4.1-.7 4.9-3.2 7.8-.7 2.2-.7 2.2-1 4h6v1l3.8.1 14 .2 6 .1 8.7.2h2.8l2.5.1h2.2c2 .3 2 .3 5 2.3l-2 4q-21.9.2-43.8-.9h-5.6c-3.8-.1-5.7-1.8-8.6-4.1-2.2-3.3-2.5-4.2-2-8l4-6 1.5-3.6c1.5-3.3 2.8-5.1 5.5-7.4"/><path fill="#312AFC" d="M299 255c-.6 3.6-2.1 5.7-4.3 8.5l-1.8 2.3c-1.9 2.2-1.9 2.2-4 4.3-2.6 2.6-3.5 5.6-4.9 8.9l-4 5c-.8 2.3-.8 2.3-1 4h-2l-.8 1.9c-1.2 2.1-1.2 2.1-3.2 2.9-2 1.2-2 1.2-3.1 4.6l-.9 3.6-2 3h-2l-.7 1.6c-2.1 3.9-4.4 7.7-8.6 9.3l-1.7.1a15 15 0 0 1-1-10q2-2.5 4.5-4.6c2.2-2.1 3.2-4.7 4.5-7.4l5-5 .9-2.5c1.6-3.7 3.9-5.2 7.1-7.5h2l.4-1.9c.6-2.1.6-2.1 2.6-4.1l2.4-.8c2.9-1.3 3.7-2.7 5.4-5.3C295 255 295 255 299 255"/><path fill="#DCDCFE" d="M150 246h1v8h2l1 6 3.1.9q3.4.9 6.7 2.2c7.2 2.1 14.7 2 22.1 2.3l4.9.2 7.6.3 7.5.3 2.3.1c3.5.1 5.5.4 8.2 2.6 4.6 6.1 3 14.7 2 21.9l-.7 5-.4 2.3A47 47 0 0 1 211 317l.2-3.1.1-2.1.3-4.5.7-12.1.1-2.4.2-4.4c.3-5.2.3-5.2 1.4-7.4.2-3.5.2-3.5 0-7-3.9-2.6-7.2-2.4-11.7-2.5l-5.3-.2-8.3-.3c-20-.7-20-.7-27.7-4l-2.9-1.2-2.1-1.2-2.2-1.1c-2.4-2-3-3.5-3.8-6.5-.2-2.9-.2-2.9-.1-5.8v-3z"/><path fill="#4837FC" d="M219 298h1a81 81 0 0 1-5.6 34.8 34 34 0 0 0-2.4 8.2h-2l.3 5.8.2 3.3c.5 2.9.5 2.9 1.7 4.8 2.7 1.6 4.9 1.4 8 1.3l3.3-.1 2.5-.1v-4l-2 1c-2.9.3-2.9.3-6 0-2.7-2.3-3-3.7-3.3-7.3.3-3.9 1.1-7 2.3-10.7h1l1 5 1-6c1.5 2.4 2 3.6 1.7 6.5l-.7 2.5-.6 2.3-.4 1.7c3.3-1.1 4-2 5.8-5.1l1.2-2.9h2l.8-1.8c1.2-2.3 2.6-4 4.3-6l1.7-1.8 1.2-1.4c.7 1.8.7 1.8 1 4-1.4 2-1.4 2-3.4 3.9-2.9 3-4.1 4.9-4.6 9.1q3.1-.6 6-2l.8-2.8c1.4-3.8 3.1-4.8 6.2-7.2l1.5-3c1.7-3.4 3.4-4.8 6.5-7l4-4c-1.5 4.8-4.2 7.9-7.4 11.6-8.3 9.4-8.3 9.4-9.4 12.7-1.4 3.2-3.4 5.4-5.7 8-1.5 1.7-1.5 1.7-3.2 4.5-1.3 2.2-1.3 2.2-4.3 4.2-4.1.7-8.1.8-12-.8-3.2-2.5-3.9-4.6-4.5-8.6a38 38 0 0 1 3.4-18.8c4.2-10.5 5.6-22.6 7.1-33.8"/><path fill="#A5A3FD" d="M215 159c0 4-1.4 5-4 8-8.7 10.5-8.7 10.5-11 16h-2l-.8 1.7a115 115 0 0 1-14.4 21l-4.5 6.1c-2.3 3.2-2.3 3.2-4.7 5.5-3.1 3.2-5 6.6-7.2 10.4-1.4 2.3-1.4 2.3-3 3.8-1.9 2-2.5 4-3.5 6.6-1.7 4.7-1.7 4.7-3.9 6.9a19 19 0 0 0 2.4 12.4c5 5.1 11.9 5.1 18.5 5.3l2.8.1 8.9.3 8.8.3 5.5.1c4.8.2 8.7.7 13.1 2.5v2l-15.8-.7-5.4-.3c-33.2-1.5-33.2-1.5-40.8-7-1-3.2-1-3.2-1-6h-2c-1.1-9.3-1.1-9.3 1.5-13.3l3.8-4c2-2 2.7-4 3.7-6.7l3.6-4.3 4.2-5.2 1.4-1.9 2.9-3.7 1.4-1.8 1.2-1.6c1.3-1.5 1.3-1.5 2.9-3 1.9-2 3-4.2 4.4-6.5q6.5-9.6 14-18.5 3.2-4.1 6-8.5c2.2-3.3 4.2-6.2 7-9l3.2-3.7z"/><path fill="#D2D1FD" d="M268 119v4h2c5 9.6 3.1 17.2 0 27.1-3.4 11.6-4 23.9-5 35.9h-2l.1 1.8A27 27 0 0 1 261 200v8l19 2v1c-15.6.4-15.6.4-21-2-2.2-6.6-.8-12.8.9-19.2l.6-2.2 2-7.5q.8-3.5.7-7.2l.1-3 .1-3.2q.4-12.4 2.2-24.6c1-7.2 1.1-12.7-2.6-19.1-2.7-1.8-2.7-1.8-5-3v-2l-5.2.4-2.9.2c-4.4.6-7.1 1.3-9.8 4.9l-.9 1.6-5 7.3-1.8 2.6-1.4 2-1-2c1.8-5.3 3.4-7.6 8-11l1.3-2.6c6.4-9.1 20-5.5 28.7-2.4"/><path fill="#4940FD" d="M316 224c3 2 3 2 3.6 4 .4 8.3-3.3 12.1-8.6 18l-6.1 9.4-1.9 2.6h-2l-.7 2.2c-1.5 3.3-3.4 4.7-6.3 6.8 1.2-2.6 2.5-4.7 4.2-7.1l1.8-2.9-1-3c-1.8.2-1.8.2-4 1l-3 5h-2c2-4.4 4.8-7.8 8.2-11.2 1.8-1.8 1.8-1.8 1.8-3.8l2.4-1.9a12 12 0 0 0 4.6-6.1h-2l-.9-2.9C303 231 303 231 302 229h-3.4l-12.6.1h-15.6c-4 0-7.6-.1-11.4-1.1v-1l21.7-.1 7.4-.1h19.7c2.2.2 2.2.2 4.2 2.2l1 7h2c2-2 2-2 2.2-5.4-.2-3.6-.2-3.6-1.2-6.6"/><path fill="#8785FD" d="M252.7 118h5.3v2l2.3.7c3 1.4 4 2.4 5.7 5.3 2.4 7.8.7 16-.5 24l-1 12c-.3 7.6-1.7 14.6-3.5 22h-1l-.1-5.7v-3.2c0-2.9.6-5.3 1-8l.6-8.2q.2-7.8 1.6-15.4c2.2-12.2 2.2-12.2-1-18-2.3-2.8-3-3.5-6.6-3.7h-3l-3-.2c-3 .4-3.5 1.1-5.5 3.4h-2l-.7 1.7a38 38 0 0 1-5.6 7.1l-2.4 2.7-2.3 2.5c-4.7 5.2-4.7 5.2-6 8.3-1.1 3-2.6 5-4.6 7.5l-2 2.4-1.4 1.8c-.7-1.8-.7-1.8-1-4 1-2 1-2 2.8-3.9 2-2.5 3.4-4.5 4.8-7.4 1.5-2.9 3-4.6 5.4-6.7 3.6-3.3 6.2-7.4 9-11.3 4.4-6 7.2-7.9 14.7-7.8"/><path fill="#C3BEFC" d="m221 146 2 1-1.2 1.6c-2.9 3.7-5.1 7-6.8 11.4l-5 6-2 3h-2l-.8 2.2c-1.3 3.1-3 5.2-5.2 7.8l-2.8 3.7q-3.5 4.8-7.3 9.4a159 159 0 0 0-9.6 13.6q-4.2 5.9-9 11.5l-7.8 10C162 229 162 229 159 231q2.3-4.8 5.6-9 2.8-4.2 5.1-8.7l4-6.8 1.2-2c1.1-1.5 1.1-1.5 3.1-2.5l2.3-4.2c2.1-4 4.4-6.8 7.7-9.8 2.7-2.5 4.8-4.7 6.7-7.8l1.3-2.2h2l.7-2a48 48 0 0 1 11.3-16l1.7-2.3 1.3-1.7h2l.8-2.2c1.3-3 3-5.3 5.2-7.8"/><path fill="#2518F9" d="M208 180v7l-4 1-.4 2.3q-1 4.4-2.6 8.7c-2.9 1.7-2.9 1.7-6 3q-1.7 3-3.1 6.1c-1.2 2.4-2.8 3.4-4.9 4.9l-1 3c-1.1 3.3-2 4.3-5 6h-2l-.3 2.8c-.7 3.3-1.3 4.9-3.7 7.2h-4c-.4-3.2-.3-4.6 1.6-7.2l2.4-2.8 2.9-4.4q2.7-4.2 5.9-7.9c2.2-2.7 2.2-2.7 3.2-4.8 1-1.9 1-1.9 3.4-3.7 2.6-2.2 2.6-2.2 4.1-5.7 1.7-3.9 3.3-4.9 6.5-7.5.9-1.8.9-1.8 1.6-3.7l1.4-3.3c3-1 3-1 4-1"/><path fill="#5F5BFB" d="M183 205c.7 1.8.7 1.8 1 4-1.3 1.7-1.3 1.7-3.2 3.3-3.7 3.4-5 6.1-6.8 10.7l-3 3-1.4 2.4c-1.6 2.6-1.6 2.6-3.5 4.3-2.7 3-3.8 6.3-5.2 10.1-.9 2.2-.9 2.2-2.9 4.2.1 4.5.5 6.5 3.6 9.8l2.4 2.2v2h2.7c16.5-.2 32.9.5 49.3 1v2l4 1v1c-7.8.1-7.8.1-10-1l-4.1-.2-2.5-.1-2.8-.1-5.7-.3-9.1-.3-8.8-.3-2.7-.1c-6-.2-11.6-.9-16.1-5.4-2.7-4.5-4.1-7.8-3.2-13.2 1.8-3 1.8-3 4-6l1.5-3.6a33 33 0 0 1 5.5-8.4l2.4-4c2.2-3.5 4.7-6.1 7.6-9l4-6z"/><path fill="#5E57F9" d="m242 125 2 1a24 24 0 0 1-7.3 13.1c-1.7 1.9-1.7 1.9-3.3 5.2-1.7 3.3-3.3 3.9-6.4 5.7l-2.6 3.1C222 156 222 156 219 158q-1.6 3-2.8 6.1c-1.4 2.3-2.8 2.9-5.2 3.9l.3 2.8c-.3 3.2-.3 3.2-2.2 5.3l-2.4 1.9a23 23 0 0 0-7.7 10l-4 4-1.6 2.8-1.4 2.2h-2l-.8 2.3c-1.3 2.9-2.5 4-5.2 5.7a62 62 0 0 1 5.4-8.9q3.5-4.9 6.6-10.1l2-3h2l.8-2.7c1.2-3.4 2.6-5.4 5-8.2q3.7-4.5 7.2-9.1 4.4-6 9.3-11.6c1.7-2.4 1.7-2.4 2.6-4.8 1.5-3.5 3.8-5.8 6.4-8.5A90 90 0 0 0 242 125"/><path fill="#9B95FD" d="M214 306h1c.7 7.1-.7 12.9-3.1 19.4A85 85 0 0 0 208 341h-2l.4 5.2.3 3q.3 3.5 1.3 6.8c1.8 1.1 1.8 1.1 4 2l2.2 1.6c3.7 1.9 6.8 2.1 10.8 1.4 3-1.8 4.6-3.3 6.4-6.3q2.8-4.6 6.1-8.8l2.3-3.2q2.4-3 5.2-5.7l1.3-2.7A47 47 0 0 1 260 318l4-4c-1.3 4-3 6.1-6 9l-1.3 2.2q-3.9 5.8-8.7 11-3.1 3.6-5.7 7.7L241 346h-2l-.8 2.2c-1.3 3-2.9 4.5-5.2 6.8l-1.4 2.5c-2.2 3.5-5 5.7-8.6 7.5-5.2.8-8.5-1-12.9-3.3-3.6-2.9-4.9-6.3-5.5-10.8-.1-15.5 4.9-30.1 9.4-44.9"/><path fill="#362AFD" d="m226 269 1 2 4-1-.9 2.2a89 89 0 0 0-2.5 12.5q-1.3 6.9-3.1 13.7c-.5 2.6-.5 2.6.5 4.6h2l1-4c1.9 8.1.6 17.5-3 25-2.1 1.3-2.1 1.3-4 2a69 69 0 0 1 2-37.9c2-6.1 2.4-12.7 3-19.1"/><path fill="#7673FC" d="m301 261 2 1-1.2 1.3c-2.6 3-5 5.9-7 9.5a25 25 0 0 1-4.8 6.2l-1.6 3.1c-1.9 3.4-4.2 6-6.9 8.8a38 38 0 0 0-7.4 11A68 68 0 0 1 260 319l-2.2 2.3C256 323 256 323 254 323l-.7 1.6a73 73 0 0 1-5.1 7.7c-1.2 1.7-1.2 1.7-2.7 4.3a59 59 0 0 1-6.5 8.4c-.8-1.6-.8-1.6-1-4a73 73 0 0 1 8-9.6l1.6-1.7q4-4.9 7.4-9.9l6.8-9.3 2.2-3c2-2.5 2-2.5 3.6-4.1q2.5-2.6 4.3-5.7 6.3-8.7 13.3-16.5 4.7-5.3 8.7-11.1 3.3-4.8 7.1-9.1"/><path fill="#3229FC" d="m163 253 2.9.4q10.9 1.7 21.9 1.7h9.8l5-.1H215v2h3l-1 3q-21.9.2-43.8-.9h-5.6c-2.6-.1-2.6-.1-5.6-2.1z"/><path fill="#A7A5FD" d="M321 224c2.1 1.7 2.9 2.6 3.5 5.4 0 7.1-.9 12-5.5 17.6a155 155 0 0 1-8.4 7.8c-4 3.5-6.7 6.7-8.6 11.8a15 15 0 0 1-4 5.4l-1.8 3.2a52 52 0 0 1-9.1 11.3A49 49 0 0 0 279 298a59 59 0 0 1-5 5c.5-4.3 2-6.6 4.8-9.9l2.1-2.7 3.6-4.2q3.6-4.3 6.5-9.2l4-5 1.5-2.5q2.5-3.9 5.5-7.5l1.3-2.4c1.6-2.4 3.2-4.1 5.3-6.1a19 19 0 0 0 5.4-8.5l4-5c2.1-3.4 2.4-6.3 2.6-10.2l.3-3.3z"/><path fill="#291BFB" d="m253.5 124.7 2.4-.1 2.1.4c2 3 2 3 1.7 5.5L258 136a42 42 0 0 0-1.9 13.2c-.1 4-1 6.3-3.1 9.8h-1l.4-9.4.2-2.7q.3-8.5 1.4-17a19 19 0 0 0-12.7 9.8L240 142l-2 2h-3c1.9-7.3 6.7-11.8 12-17 2.4-2.4 3.2-2.3 6.5-2.3"/><path fill="#B8B7FD" d="m159 262 3.4.9c7.7 1.9 15.6 2.2 23.5 2.5l4.9.2 7.6.3 7.5.3 2.3.1c3.5.1 5.5.4 8.2 2.6 4.7 6.2 3 14.9 1.9 22.2L216 305h-1q-.3-8.5.8-16.8.4-4.2.5-8.4l.1-3.1c-.5-3.6-1.4-4.5-4.4-6.7q-4.5-.8-9-.8l-2.7-.1-8.5-.2-8.4-.3-5.2-.2c-14.3-.4-14.3-.4-18.3-4.5z"/><path fill="#3328FC" d="M196 204c1 2 1 2 .4 4.8a15 15 0 0 1-5.9 6.8 15 15 0 0 0-3.6 5.5c-1.7 3.8-3.3 4.9-6.9 6.9l-2 3c-2 3-2 3-4.6 4.5-3.1 2-4 4.1-5.4 7.5l-4-1c-.2-2.8-.2-2.8 0-6l4-4 1.4-3.4c1.7-3.8 3.5-5.9 6.6-8.6-1.1 2.9-1.8 4.8-4 7l-1 5h4c1.3-2.4 2.1-4.4 2.8-7 1.6-3.9 3.8-4.7 7.2-7l1-3.1c1-2.9 1-2.9 3.9-4.5l3.1-1.4c1.9-2.7 1.9-2.7 3-5"/><path fill="#584EFD" d="M256 175h1c.2 11.4.2 11.4-.5 16.2q-.8 6.6-.9 13.2l-.1 2.1c0 2 0 2 .5 5.5 2.5 1.9 2.5 1.9 5 3v2h49v2c-18 .1-36 .1-54-1l-1-3h-2l-.2-12.7-.1-3.6c0-8.3 1.1-15.7 3.3-23.7"/><path fill="#3A2CFD" d="M243 140c.8 1.7.8 1.7 1 4a23 23 0 0 1-7 7l-.9 2.9a14 14 0 0 1-5.1 7.1h-2l-.2 2.7c-1 4.1-2.7 5.4-5.8 8.3l-4 6c-1-3-1-3 .2-5.4 1.8-2.6 1.8-2.6 3.8-4.4 2.4-2.6 3.2-5.1 4.3-8.4.7-1.8.7-1.8 2.7-3.8h3l.5-1.9.7-2.5.8-2.4c1.2-2.7 2.4-3 5-4.2 1.8-2.6 1.8-2.6 3-5m-26 40-1.4 1.7c-1.6 2.3-1.6 2.3-2.5 4.8-1.1 2.5-1.1 2.5-3 4.3a19 19 0 0 0-4.1 6.3c-1.5 3.1-2.7 5.3-6 6.9l-3-1 2.4-2.1a19 19 0 0 0 4.6-9.9c1-2 1-2 4-3l1-2h2v-6c3-1 3-1 6 0"/><path fill="#D5D5FD" d="M268 119v4h2c6.2 11.8 1.7 23-2 35h-1q-.3-7 1-13.9a47 47 0 0 0 0-20.1h-2l-1.9-1.9c-3.4-3.4-6.9-3.3-11.5-3.3h-2.8c-3 .2-5.1.9-7.8 2.2-1.9 2.5-1.9 2.5-2.8 4.1l-5 7.3-1.8 2.6-1.4 2-1-2c1.8-5.3 3.4-7.6 8-11l1.3-2.6c6.4-9.1 20-5.5 28.7-2.4"/><path fill="#8A87FC" d="M157 241v3l-1 1c-.5 4.9.2 8.2 2.4 12.4 5 5.1 11.9 5.1 18.5 5.3l2.8.1 8.9.3 8.8.3 5.5.1c4.8.2 8.7.7 13.1 2.5v2l-15.8-.7-5.4-.3a387 387 0 0 1-26.3-1.8l-3.4-.4a16 16 0 0 1-9.9-7.4q-2.4-6.6-1.2-13.4c1.5-1.8 1.5-1.8 3-3"/><path fill="#5344FD" d="m259 227 21.7-.1h27.2c2.1.1 2.1.1 3.1 1.1.5 4.1 1 8.3-1.1 12-1.4 1.6-1.4 1.6-3.9 4l-3-1 4-6h-2l-.9-2.9C303 231 303 231 302 229h-3.4l-12.6.1h-15.6c-4 0-7.6-.1-11.4-1.1z"/><path fill="#CECCFD" d="M289 283c0 3.7-1.2 4.6-3.7 7.2-1.3 1.8-1.3 1.8-2.2 4.6a34 34 0 0 1-6 10l-1.4 1.8c-3.3 4.3-3.3 4.3-6.7 5.4l-.1 2.1c-1.3 4.2-3.9 6.3-7.1 9.3l-3.5 3.4-1.8 1.7q-4 4-7.5 8.5c0-3.7.8-4.2 3.3-6.9q3.9-4.2 6.7-9.1l5.9-8 1.5-2.1q4.4-5.9 9.6-10.9 3.6-4 6.5-8.5a66 66 0 0 1 6.5-8.5"/><path fill="#3629FE" d="M247 166v3l1 4.4c1.3 6 1 11.7.7 17.8l-.2 3.1q-.2 8-1.5 15.7l-3-1c-.6-10.5-1.3-21.1-.8-31.6l.1-2.1c.3-4 .9-6.4 3.7-9.3"/><path fill="#3B2CFD" d="m301 221 4.3-.1 2.4-.1c2.3.2 2.3.2 5.3 2.2v2h2c2.5 3.7 2.5 5.6 2 10-2 1.9-2 1.9-4 3l-.3-1.9-.5-2.5-.5-2.4c-.7-2.2-.7-2.2-3.7-4.2v-2h-45c2-2 2-2 4.8-2.2h5.5q13.3.4 26.7 1.2z"/><path fill="#4D48FC" d="M164 260a1110 1110 0 0 1 51.3.7c2.7.3 4.4.8 6.7 2.3 3.9 6.4 3.8 14.8 3 22q-1.6 6.6-4 13c-1.3-3.6-.8-6.4-.1-10.1 2.7-16.3 2.7-16.3-1.9-22.9l-3-1v-2h-2.8c-34.4.2-34.4.2-49.2-1z"/><path fill="#A4A0FB" d="M252.7 118h5.3v1h-2c-7.4.4-7.4.4-10.5 3.5L244 125h-2l-.7 1.7a38 38 0 0 1-5.6 7.1l-2.4 2.7-2.3 2.5c-4.7 5.2-4.7 5.2-6 8.3-1.1 3-2.6 5-4.6 7.5l-2 2.4-1.4 1.8c-.7-1.8-.7-1.8-1-4 1-2 1-2 2.8-3.9 2-2.5 3.4-4.5 4.8-7.4 1.5-2.9 3-4.6 5.4-6.7 3.6-3.3 6.2-7.4 9-11.3 4.4-6 7.2-7.9 14.7-7.8"/><path fill="#746CFB" d="M215 317c1.2 3.5.8 5.8-.2 9.3l-.9 3c-.9 2.7-.9 2.7-2.6 5.9-2.1 6-2.4 12.6-1.3 18.8 2.3 3.1 3.8 4.7 7.5 5.6l2.6-.1h2.5a12 12 0 0 0 6.4-3.5l3-5 5-6c0 3.7-1.3 4.8-3.7 7.4-1.3 1.6-1.3 1.6-2.9 4.3a12 12 0 0 1-5.4 5.3c-5.4.5-8.6.4-13-3-5.9-5.5-5.9-5.5-6.1-9.6v-3l.1-3.1V341h2l.2-2.1.2-2.8.3-2.7c.3-2.4.3-2.4 1.3-4.4h2l.4-1.9.5-2.4.6-2.4c.5-2.3.5-2.3 1.5-5.3"/><path fill="#958FFC" d="M256 199h1l.3 2.6.5 3.3.4 3.3c.8 2.8.8 2.8 2.6 4 2.4.9 4.3 1.1 6.9 1.1h5.9l6.5.1 10.1.1 9.8.1h3c5.7 0 9.9.6 15 3.4 2 2.6 2 2.6 3 5l-1 2-4.4-3.7c-4.4-3.6-7.8-3.6-13.2-3.6l-2.6-.1-8.2-.1c-27.3-.3-27.3-.3-32.6-2.5a14 14 0 0 1-3.2-10.3l.1-2.7z"/><path fill="#5249FC" d="M219 298h1a81 81 0 0 1-5.6 34.8 34 34 0 0 0-2.4 8.2h-2l.2 5.8.2 3.2c.7 3.6 1.6 4.8 4.6 7q5 1 10 0c3.1-2 3.1-2 5-4-.4 2.6-.8 3.8-2.7 5.6-4 2.4-7.8 2.2-12.3 1.4a10 10 0 0 1-6-6 36 36 0 0 1 2.9-22.2c4.2-10.5 5.6-22.6 7.1-33.8"/><path fill="#4E49FC" d="M262 126c1.5 1.3 1.5 1.3 3 3 .6 7.4-.7 14.6-1.8 21.9l-.5 3.3Q261 164.8 258 175h-1l-.1-5.9-.1-3.3c.2-3.8.9-7.2 1.7-11q1.4-8.1 2.1-16.4l.4-3.6z"/><path fill="#C9C6FD" d="M247 337c.8 1.8.8 1.8 1 4l-4 4-3 5-5 6-1.6 2.6a16 16 0 0 1-8.2 7.6c-8.2 2-8.2 2-12.4-.5L208 361c3 0 3 0 5.8 1.5a13 13 0 0 0 9.2 1.5c6.7-3.4 10.3-9.3 14.2-15.4 1.8-2.6 1.8-2.6 3.8-3.6l3-5z"/><path fill="#322BFE" d="M269 283c1.6 3.2.8 5.6 0 9l-5 3q-1.3 3-2.2 6.1c-1.1 2.6-2.8 4-4.8 5.9-.8 2.8-.8 2.8-1 5 3-2 3-2 4.4-5 1.7-3.3 2.4-3.6 5.6-5l4-4c-.8 2.4-.8 2.4-2 5l-3 1-2 4c-4.3 5.7-4.3 5.7-7.3 6.9l-1.7.1a15 15 0 0 1-1-10q2-2.5 4.5-4.6c2.2-2.1 3.2-4.7 4.5-7.4l5-5c1.3-2.8 1.3-2.8 2-5"/><path fill="#D4D4FD" d="M199 269c11.6-.8 11.6-.8 16.3 1.8 4.2 8 1.4 19.4.3 28.1l-.4 3.3c-.6 5.1-1.3 9.9-3.2 14.8h-1l.2-3.1.1-2.1.3-4.5.7-12.1.1-2.4.2-4.4c.3-5.2.3-5.2 1.4-7.4.3-3.4.3-3.4 0-7-3-3-5.6-3.4-9.8-3.7l-2.9-.2-2.3-.1z"/><path fill="#D5D4FD" d="m188 188 1 3c-1.3 2.2-1.3 2.2-3.2 4.8a36 36 0 0 0-5.2 8.6 35 35 0 0 1-6.9 10l-3 3.4-1.4 1.7q-3.2 3.9-6.1 8C162 229 162 229 159 231q2.3-4.8 5.6-9 2.8-4.2 5.1-8.7l4-6.8 1.2-2c1.1-1.5 1.1-1.5 3.1-2.5l2.3-4.2c2.1-4 4.3-6.8 7.7-9.8"/><path fill="#908BFA" d="M215 159c0 4-1.4 5-4 8-8.7 10.5-8.7 10.5-11 16h-2l-.8 1.7q-6 11.3-14.3 21-3.7 4.5-6.9 9.3c-.6-1.9-.6-1.9-1-4l4-4 3-5q6.5-9.6 14-18.5 3.2-4.1 6-8.5c2.2-3.3 4.2-6.2 7-9l3.2-3.7z"/><path fill="#362BFD" d="M258 153h1l-.4 3.7-1 11.5q-.4 6.6-2 12.9c-1.7 6.5-2.3 13-2.9 19.7q-.2 3.1-.7 6.2l-2 1a149 149 0 0 1 8-55"/><path fill="#6A65FD" d="M316 222c2 1.1 2 1.1 4 3 1 5.4 1.3 11.9-1.9 16.7L314 246l-.9 2.4a16 16 0 0 1-4.8 6.4 121 121 0 0 0-16.8 20.2c-1.5 2-1.5 2-3.5 3 3.4-7 7.7-14.2 13-20h2l.8-2.2c1.3-3.1 3-5.2 5.2-7.8l1.9-2.9c2.1-3.1 2.1-3.1 4.9-5.9 3-4.3 3-8 2.2-13.2-1-2.3-1-2.3-2-4"/><path fill="#B4B4FD" d="M258 119c2.9.2 2.9.2 6 1 1.4 2.1 1.4 2.1 2 4h2c4.1 7.9 1.6 17.2.1 25.5q-2 10.2-3.1 20.5h-1c-.2-9.4.2-18.3 1.5-27.7 1-7.2 1.2-12.7-2.5-19.3-2.7-2.4-2.7-2.4-5-4"/><path fill="#523DFD" d="M237 328c.7 1.8.7 1.8 1 4-1.3 1.9-1.3 1.9-3.2 3.8a21 21 0 0 0-5.4 8 13 13 0 0 1-6.4 7.2c-4.3-.3-4.3-.3-6-2-.3-4-.3-5.6 2-9l1-6c1.5 2.4 2 3.6 1.7 6.5l-.7 2.5-.6 2.3-.4 1.7c3.3-1.1 4-2 5.8-5.1l1.2-2.9h2l.8-1.8c1.2-2.3 2.6-4 4.3-6l1.7-1.8z"/><path fill="#5951F7" d="m242 125 2 1a24 24 0 0 1-7.3 13.1c-1.7 1.9-1.7 1.9-3.3 5.2-1.7 3.2-3.2 4.1-6.4 5.7l-2 1c-.4-2.9-.6-5.1 1-7.6q2.3-2.6 4.7-4.8 6.3-6.3 11.3-13.6"/><path fill="#2721FD" d="M273 284h2l1 5-1.9.6c-3.1 2.1-3.1 4.8-4.1 8.4-1.8 2.7-3.1 4.6-6.1 5.9-2.9 1.6-3.5 4.2-4.9 7.1l-3 1c-.3-2.2-.3-2.2 0-5l5-5 .9-2.4c1.2-2.8 2.2-3.7 4.6-5.5 3.3-2.7 4.5-4.9 5.5-9.1z"/><path fill="#A29EFC" d="M214 306h1c.7 7.1-.7 12.9-3.1 19.4A85 85 0 0 0 208 341h-2c.2 7.8 1.4 12.8 6 19l1 2c-3.5-.9-4.7-1.6-6.6-4.7-6.3-15.3 3.1-36.4 7.6-51.3"/></g></svg>