<svg xmlns="http://www.w3.org/2000/svg" width="199" height="108" viewBox="0 0 199 108"><defs><linearGradient id="tessera-luce" x1="14" x2="183" y1="16" y2="104" gradientUnits="userSpaceOnUse"><stop offset="0" stop-color="#DCE4FE"/><stop offset="1" stop-color="#CCD7FC"/></linearGradient><linearGradient id="testa-luce" x1="47.5" x2="71.5" y1="41" y2="65" gradientUnits="userSpaceOnUse"><stop offset="0" stop-color="#6380FB"/><stop offset="1" stop-color="#4461F3"/></linearGradient><linearGradient id="busto-luce" x1="38.5" x2="80.5" y1="70.5" y2="90.5" gradientUnits="userSpaceOnUse"><stop offset="0" stop-color="#2458DA"/><stop offset="1" stop-color="#0A3DB8"/></linearGradient><clipPath id="foto-forma"><circle cx="59.5" cy="60.5" r="32.5"/></clipPath><filter id="sfuma-ombra" width="199" height="108" x="0" y="0" filterUnits="userSpaceOnUse"><feGaussianBlur stdDeviation="2.2"/></filter></defs><g id="nuvola" fill="#F2F6FE"><circle cx="34" cy="20" r="17"/><circle cx="22" cy="78" r="20"/><circle cx="176" cy="64" r="18"/></g><rect id="tessera-ombra" width="153" height="7" x="22" y="99" fill="#1D4ED8" filter="url(#sfuma-ombra)" opacity=".12" rx="3.5"/><rect id="tessera" width="169" height="88" x="14" y="16" fill="url(#tessera-luce)" stroke="#C2CFFB" stroke-width="1.2" rx="13"/><path id="tessera-riflesso" stroke="#FFF" stroke-linecap="round" stroke-opacity=".45" stroke-width="1.6" d="M26 20h145"/><g id="foto"><circle id="foto-fondo" cx="59.5" cy="60.5" r="32.5" fill="#FFF"/><g id="persona" clip-path="url(#foto-forma)"><path id="busto" fill="url(#busto-luce)" d="M38.5 106.5v-18a18 18 0 0 1 18-18h6a18 18 0 0 1 18 18v18z"/><circle id="testa" cx="59.5" cy="53" r="12" fill="url(#testa-luce)"/><path id="testa-riflesso" fill="none" stroke="#FFF" stroke-linecap="round" stroke-opacity=".4" stroke-width="2.2" d="M53 50a7.5 7.5 0 0 1 4.5-4.6"/></g></g><g id="righe-dati" stroke-linecap="round" stroke-width="8"><path id="riga-1" stroke="#A9BCFD" d="M108 41h52"/><path id="riga-2" stroke="#FFF" d="M108 59.5h29"/><path id="riga-3" stroke="#A9BCFD" d="M108 79h52"/></g></svg>