<svg xmlns="http://www.w3.org/2000/svg" viewBox="0 0 201 176" width="201" height="176">
<title>Rischio economico</title>
<defs><filter id="sfuma-ombra" filterUnits="userSpaceOnUse" x="0" y="0" width="201" height="176"><feGaussianBlur stdDeviation="2"/></filter><filter id="sfuma-alone" filterUnits="userSpaceOnUse" x="0" y="0" width="201" height="176"><feGaussianBlur stdDeviation="5"/></filter><filter id="sfuma-lieve" filterUnits="userSpaceOnUse" x="0" y="0" width="201" height="176"><feGaussianBlur stdDeviation="0.8"/></filter><linearGradient id="nuvola-fondo" gradientUnits="userSpaceOnUse" x1="0" y1="0" x2="0" y2="176"><stop offset="0" stop-color="#DCE9FD"/><stop offset="0.55" stop-color="#DCE9FD"/><stop offset="1" stop-color="#F1F4FC"/></linearGradient><radialGradient id="alone-retro-g" gradientUnits="userSpaceOnUse" cx="120" cy="60" r="70" gradientTransform="translate(120 60) scale(1 0.51) translate(-120 -60)"><stop offset="0" stop-color="#FFC470" stop-opacity="0.8"/><stop offset="0.45" stop-color="#FFE2A8" stop-opacity="0.44"/><stop offset="1" stop-color="#FFE2A8" stop-opacity="0"/></radialGradient><radialGradient id="alone-destra-g" gradientUnits="userSpaceOnUse" cx="165" cy="128" r="52" gradientTransform="translate(165 128) scale(1 0.88) translate(-165 -128)"><stop offset="0" stop-color="#FFB347" stop-opacity="0.9"/><stop offset="0.45" stop-color="#FFB347" stop-opacity="0.5"/><stop offset="1" stop-color="#FFB347" stop-opacity="0"/></radialGradient><radialGradient id="alone-sotto-g" gradientUnits="userSpaceOnUse" cx="100" cy="160" r="80" gradientTransform="translate(100 160) scale(1 0.17) translate(-100 -160)"><stop offset="0" stop-color="#FFB347" stop-opacity="0.5"/><stop offset="0.45" stop-color="#FFB347" stop-opacity="0.28"/><stop offset="1" stop-color="#FFB347" stop-opacity="0"/></radialGradient><linearGradient id="banconota-retro-luce" gradientUnits="userSpaceOnUse" x1="-63.45" y1="-34.65" x2="25.38" y2="34.65"><stop offset="0" stop-color="#FFF6DE"/><stop offset="0.45" stop-color="#FFEBC4"/><stop offset="1" stop-color="#FFDDA0"/></linearGradient><linearGradient id="banconota-mezzo-luce" gradientUnits="userSpaceOnUse" x1="-67.5" y1="-38.5" x2="27" y2="38.5"><stop offset="0" stop-color="#2C62D6"/><stop offset="0.45" stop-color="#1F4FC4"/><stop offset="1" stop-color="#173FA6"/></linearGradient><linearGradient id="banconota-fronte-luce" gradientUnits="userSpaceOnUse" x1="-67.5" y1="-38.5" x2="27" y2="38.5"><stop offset="0" stop-color="#4A85F5"/><stop offset="0.45" stop-color="#2D63DE"/><stop offset="1" stop-color="#1E45B5"/></linearGradient><clipPath id="banconota-fronte-ritaglio"><path d="M-58.5 -38.5 L58.5 -38.5 C63.47 -38.5 67.5 -34.47 67.5 -29.5 L67.5 29.5 C67.5 34.47 63.47 38.5 58.5 38.5 L-58.5 38.5 C-63.47 38.5 -67.5 34.47 -67.5 29.5 L-67.5 -29.5 C-67.5 -34.47 -63.47 -38.5 -58.5 -38.5 Z"/></clipPath><radialGradient id="banconota-fronte-bag0" gradientUnits="userSpaceOnUse" cx="62" cy="36" r="58"><stop offset="0" stop-color="#FFB02E" stop-opacity="0.95"/><stop offset="0.5" stop-color="#FF9A2E" stop-opacity="0.43"/><stop offset="1" stop-color="#FF9A2E" stop-opacity="0"/></radialGradient><radialGradient id="banconota-fronte-bag1" gradientUnits="userSpaceOnUse" cx="30" cy="40" r="40"><stop offset="0" stop-color="#FFB02E" stop-opacity="0.5"/><stop offset="0.5" stop-color="#FF9A2E" stop-opacity="0.23"/><stop offset="1" stop-color="#FF9A2E" stop-opacity="0"/></radialGradient></defs>
<g id="nuvola" fill="url(#nuvola-fondo)" opacity="0.14"><path d="M8 80 C6 36 40 10 100 8 C160 6 198 40 196 100 C194 150 160 174 100 172 C40 170 10 140 8 80 Z"/></g>
<ellipse id="alone-retro" cx="120" cy="60" rx="70" ry="36" fill="url(#alone-retro-g)"/>
<ellipse id="alone-destra" cx="165" cy="128" rx="52" ry="46" fill="url(#alone-destra-g)"/>
<ellipse id="alone-sotto" cx="100" cy="160" rx="80" ry="14" fill="url(#alone-sotto-g)"/>
<ellipse id="ombra" cx="108" cy="168" rx="70" ry="3.5" fill="#14246B" opacity="0.2" filter="url(#sfuma-ombra)"/>
<g id="banconota-retro" transform="translate(86.5 82) rotate(-18)"><path id="banconota-retro-faccia" d="M-54.45 -34.65 L54.45 -34.65 C59.42 -34.65 63.45 -30.62 63.45 -25.65 L63.45 25.65 C63.45 30.62 59.42 34.65 54.45 34.65 L-54.45 34.65 C-59.42 34.65 -63.45 30.62 -63.45 25.65 L-63.45 -25.65 C-63.45 -30.62 -59.42 -34.65 -54.45 -34.65 Z" fill="url(#banconota-retro-luce)"/></g>
<g id="banconota-mezzo" transform="translate(96.5 105) rotate(-18.5)"><path id="banconota-mezzo-faccia" d="M-58.5 -38.5 L58.5 -38.5 C63.47 -38.5 67.5 -34.47 67.5 -29.5 L67.5 29.5 C67.5 34.47 63.47 38.5 58.5 38.5 L-58.5 38.5 C-63.47 38.5 -67.5 34.47 -67.5 29.5 L-67.5 -29.5 C-67.5 -34.47 -63.47 -38.5 -58.5 -38.5 Z" fill="url(#banconota-mezzo-luce)"/></g>
<g id="banconota-fronte" transform="translate(110.5 108) rotate(-18)"><path id="banconota-fronte-faccia" d="M-58.5 -38.5 L58.5 -38.5 C63.47 -38.5 67.5 -34.47 67.5 -29.5 L67.5 29.5 C67.5 34.47 63.47 38.5 58.5 38.5 L-58.5 38.5 C-63.47 38.5 -67.5 34.47 -67.5 29.5 L-67.5 -29.5 C-67.5 -34.47 -63.47 -38.5 -58.5 -38.5 Z" fill="url(#banconota-fronte-luce)"/><path id="banconota-fronte-filo" d="M-62.1 -37.4 H57.6" stroke="#FFFFFF" stroke-opacity="0.5" stroke-width="1.1" stroke-linecap="round" fill="none"/><rect id="banconota-fronte-chip" x="34.5" y="-27.5" width="15" height="10" rx="5" fill="#1E45B5" opacity="0.7"/><path id="banconota-fronte-euro" d="M19.9 -5.93 18.14 -1.97H-5.81L-4.32 -5.93ZM16.41 1.59 14.43 5.7H-5.81L-4.32 1.59ZM24.66 -15.72 21.49 -8.95Q20.9 -9.29 19.97 -9.83Q19.05 -10.37 17.79 -10.8Q16.53 -11.22 14.92 -11.22Q12.62 -11.22 10.96 -10.1Q9.3 -8.98 8.41 -6.54Q7.52 -4.09 7.52 -0.12Q7.52 3.84 8.41 6.28Q9.3 8.72 10.96 9.81Q12.62 10.9 14.92 10.9Q16.51 10.9 17.75 10.48Q19 10.07 19.9 9.52Q20.8 8.97 21.34 8.62L24.54 15.36Q22.59 16.93 20.14 17.71Q17.7 18.49 14.92 18.49Q10.21 18.49 6.57 16.3Q2.93 14.12 0.87 9.96Q-1.19 5.79 -1.19 -0.12Q-1.19 -6.07 0.87 -10.26Q2.93 -14.45 6.57 -16.66Q10.21 -18.87 14.92 -18.87Q17.8 -18.87 20.23 -18.06Q22.66 -17.25 24.66 -15.72Z" fill="#FFF6E5"/><rect id="banconota-fronte-bagliore-1" x="-67.5" y="-38.5" width="135" height="77" fill="url(#banconota-fronte-bag0)" clip-path="url(#banconota-fronte-ritaglio)"/><rect id="banconota-fronte-bagliore-2" x="-67.5" y="-38.5" width="135" height="77" fill="url(#banconota-fronte-bag1)" clip-path="url(#banconota-fronte-ritaglio)"/></g>
</svg>
